<svg width="500" height="94" viewBox="0 0 500 94" fill="none" xmlns="http://www.w3.org/2000/svg">
<path d="M131.9 0.1C253.1 0.1 374.3 0.1 495.5 0C499.2 0 500 0.8 500 4.5C499.8 34.3 499.9 64 499.9 93.8C377.2 93.8 254.5 93.8 131.9 93.8C130.2 91.9 130.3 89.6 130.3 87.4C130.3 60.5 130.3 33.5 130.3 6.6C130.2 4.3 130.2 2 131.9 0.1Z" fill="#060204"/>
<path d="M131.9 0.1C131.9 31.3 131.9 62.6 131.9 93.8C89.3 93.8 46.8 93.7 4.2 93.9C0.5 94 0 93 0 89.6C0.1 61.2 0.1 32.8 0 4.3C0 1 0.5 0 4.2 0C46.7 0.2 89.3 0.1 131.9 0.1Z" fill="#E91D24"/>
<path d="M321 39C331.1 39.6 331.1 39.6 331.1 49.8C331.1 55.7 331 61.5 331.1 67.4C331.1 69.7 330.4 70.5 328.1 70.5C314.8 70.4 301.4 70.4 288.1 70.5C285.8 70.5 284.9 69.9 285 67.5C285.1 59 285.1 50.6 285 42.1C285 39.6 286.1 39.2 288.3 39.2C296.7 39.3 305.2 39.3 313.7 39.3C313.3 46.2 312.3 52.8 305.4 56.5C302.7 58 300.2 59.7 297.6 62.6C303.8 60.4 309.5 59 315.5 59.5C317.8 59.7 318.2 58.5 318.2 56.6C318.2 51.9 317.8 47.2 318.9 42.5C319.2 41.1 319.2 39.6 320.4 38.5C320.5 38.4 320.7 38.4 320.9 38.4C321 38.3 321.1 38.5 321 39Z" fill="#E91D24"/>
<path d="M372.3 67.2C370.1 68.2 367.9 69.1 365.7 70C365.1 70.2 364 70.6 363.9 70.4C361.6 65.6 359.1 69.9 356.7 70.3C351.9 71.2 347.2 69.1 344.4 64.4C340.2 57.4 342.9 45.7 349.8 41.4C353.8 38.9 358 38.9 363.2 41.6C361.2 36.4 365.7 30.4 358.5 27.9C358.5 27.8 358.5 27.6 358.6 27.5C368 22.8 368 22.8 368 33.2C368 42.8 368.1 52.4 368 61.9C368 65 368.7 66.9 372.3 67.2Z" fill="#FCFCFC"/>
<path d="M189.4 41.9C187.2 36.7 191.6 30.9 184.8 28C184.8 28.1 184.7 27.7 184.9 27.6C194.1 22.9 194.1 22.9 194.1 33.1C194.1 42.7 194.2 52.3 194.2 61.9C194.2 64.6 194.4 67 199 66.2C196.2 68.7 193.5 69.1 191.2 70.3C190.8 70.5 189.9 70.6 189.8 70.5C187.5 65.4 185 70.1 182.8 70.5C177.8 71.3 172.9 69.1 170.2 64.2C166.3 57.1 169.1 45.8 175.9 41.6C179.9 39 184.1 39 189.4 41.9Z" fill="#FBFBFB"/>
<path d="M460.9 54.4C461 63.8 454.9 70.6 446.5 70.6C438.8 70.6 432.7 63.8 432.8 55.4C432.9 46.7 439 39.8 446.8 39.7C454.6 39.5 460.8 46 460.9 54.4Z" fill="#FCFCFC"/>
<path d="M321 39C318.8 46.2 318.8 53.6 319.6 61.5C310.6 59.1 302.5 62.3 293.5 65.3C296.6 60 300.4 57.4 304.7 55.5C307.8 54.1 309.5 52.2 310.3 48.9C311.1 45.6 312.5 42.5 313.6 39.3C316.6 35 318.4 29.9 323 25.8C323.8 30.9 320.9 34.7 321 39Z" fill="#FEFDFD"/>
<path d="M223.8 62.2C222.3 68.6 217.3 71.6 211.2 70.3C203.8 68.8 199.4 59.8 201.6 50.6C203.5 42.6 210 38.2 217.5 39.9C220 40.5 222 41.8 223.5 43.8C225 45.8 226.4 48.3 225.5 50.5C224.6 52.8 221.8 51.4 219.8 51.5C216.2 51.7 212.6 51.7 209.1 51.5C206.5 51.4 205.8 52.1 206 54.8C206.9 64.1 214.5 67.5 223.8 62.2Z" fill="#FBFBFB"/>
<path d="M398.3 60.9C397.8 65.7 395.1 68.9 390.9 70.2C386.6 71.5 382.4 70.6 379.3 67.2C374.2 61.7 374 55.2 376.2 48.5C377.9 43.3 381.8 40.3 387.4 39.7C393 39.2 397.9 42.5 399.2 47.7C399.9 50.3 399.6 52 396.1 51.8C391.7 51.5 387.3 51.9 383 51.7C379.9 51.5 379.4 52.8 379.9 55.4C380.8 59.8 382.8 63.3 387.2 64.9C392 66.6 395.2 64 398.3 60.9Z" fill="#FBFBFB"/>
<path d="M146.6 26.7C152.3 26.7 158.1 26.7 163.8 26.7C158.4 27.7 158.1 31.6 158.2 36C158.4 44.3 158.2 52.6 158.3 60.9C158.3 67.2 158.3 67.2 164.4 69.4C158.2 69.4 152.6 69.4 147 69.4C153 68.7 152.3 64.2 152.3 60.1C152.3 52 152.3 43.8 152.3 35.7C152.3 31.5 152.4 27.3 146.6 26.7Z" fill="#FEFEFE"/>
<path d="M273.2 69.4C268.9 69.4 264.6 69.4 258.9 69.4C263.3 68.1 264 65.8 263.9 62.7C263.8 53 263.8 43.2 263.8 33.5C263.8 30.7 264.2 27.7 259.8 28.5C259.9 27.9 259.9 27.6 260 27.6C269.4 22.8 269.4 22.8 269.4 33.4C269.4 43.1 269.4 52.9 269.4 62.6C269.3 65.6 269.2 68.6 273.2 69.4Z" fill="#F7F7F7"/>
<path d="M426.7 63.3C424.9 67.8 421.6 70.3 416.8 70.5C411.6 70.7 408.1 68 406 63.6C403.1 57.3 403.1 51 407.3 45.1C410.5 40.6 415.1 39 420.6 39.9C423.5 40.4 425.8 41.8 427.2 44.4C428.1 46.1 428.5 48 426.3 48.9C424.3 49.7 422.3 49.4 421.7 46.9C421 44 420.3 41.5 416.5 41.9C412.8 42.3 411.2 44.6 410.2 47.7C409.1 50.9 409.3 54.1 410.2 57.3C412.7 66.2 419.5 68.1 426.1 61.6C427.4 61.7 427.4 62.3 426.7 63.3Z" fill="#FCFCFC"/>
<path d="M242.2 52C244 50.8 247.1 50.8 246.1 47.2C245.5 44.9 245.2 42.6 242.5 42C239.1 41.3 236.6 42.1 236.5 46.2C236.4 47.9 236.5 49.6 234.4 50C233.4 50.2 232.4 49.9 231.8 49C230.9 47.5 231.1 45.8 231.9 44.3C233.8 40.6 239.5 38.9 245.4 40C250 40.9 251.4 43.9 251.4 48.1C251.4 52.6 251.4 57.2 251.6 61.7C251.8 66.6 251.8 66.6 256.3 64.9C253.1 70.4 250.6 71.4 247.1 68.4C246.8 66.7 245.3 65.8 244.6 64.4C244.2 60.8 246.5 56.8 243.1 53.6C242.4 53.3 242 52.8 242.2 52Z" fill="#FAFAFA"/>
<path d="M476.3 45C472.7 51.5 474.7 58.5 474.6 65.4C474.6 67.9 477.2 68.2 478.9 69.5C474.3 69.5 469.8 69.5 465.9 69.5C472 62.8 467.7 54.5 468.8 46.9C469.2 44.2 466.9 44.2 464.9 43.8C471.7 38.9 473.1 39.1 475.5 45C475.7 44.6 476 44.6 476.3 45Z" fill="#F8F7F8"/>
<path d="M162.3 80.5C162.4 84.7 159.3 88 155.2 88.1C150.8 88.2 147.5 84.9 147.5 80.6C147.5 76.4 150.7 73.3 154.9 73.2C159.1 73.1 162.2 76.2 162.3 80.5Z" fill="#E81D24"/>
<path d="M242.2 52C242.6 52.3 242.9 52.6 243.3 52.9C243.5 54.7 241.9 55.3 240.9 56.1C239 57.6 236.8 59 237.1 61.8C237.5 64.8 240.4 64.9 242.5 65.8C243.1 66.2 243.6 66.7 243.2 67.5C238.4 71.2 234.1 71.2 231.5 67.5C228.8 63.7 230.1 58.6 234.6 55.5C236.9 54 239.3 52.5 242.2 52Z" fill="#F8F8F8"/>
<path d="M476.3 45H475.8H475.3C476.2 42.2 478.1 40.4 481 39.8C482.7 39.5 484.2 40 485.1 41.6C485.8 42.8 485.8 44.1 484.8 45.2C483.4 46.7 481.9 46.3 480.5 45.2C479.1 44.1 477.8 44 476.3 45Z" fill="#F7F6F6"/>
<path d="M243.2 67.6C242.8 67.2 242.4 66.8 241.9 66.4C242.3 64.6 243.4 64.1 245.1 64.5C246.2 65.6 247.6 66.6 247 68.5C246.3 66.2 244.9 66.3 243.2 67.6Z" fill="#E9E9E9"/>
<path d="M426.7 63.3C426.4 62.7 426.2 62.2 425.9 61.6C426.3 60.8 426.6 59.2 427.5 60C428.5 60.9 427.9 62.5 426.7 63.3Z" fill="#E1E0E0"/>
<path d="M39.1 54.8C40.4 57 42.7 56.5 44.7 56.7C50.7 57.3 56.9 57.5 62.7 57.2C70.2 56.9 77.9 57.5 85.4 56.3C86.1 56.2 86.9 55.7 86.9 54.7C86.9 54.5 86.9 54.3 87 54.1C87.5 52.7 88.4 51.6 89.2 50.4C89.9 49.4 90.5 48.3 91.2 47.3C92.2 45.4 93.7 44.4 95.8 44.1C99.7 42.8 103.5 42 106.2 46.2C108.7 50 107 55.1 102.6 55.8C98 56.6 96.9 59.7 96.6 63.3C96.3 66.3 96.7 69.5 96.7 72.5C96.8 78.5 94 81.4 88 81.4C71.6 81.4 55.2 81.4 38.8 81.4C32.2 81.4 29.4 78.3 29.9 71.4C30.2 67.5 30.7 63.6 29.2 59.9C28.3 57.9 27.2 56.5 24.8 56C20.3 55.1 18.5 51.8 19.7 47.8C20.8 44 24.5 42.3 28.7 43.4C30.2 43.8 31.5 45.1 33.2 44.9C33.9 45 34.4 45.4 34.9 45.9C36.5 48.8 38.1 51.7 39.1 54.8Z" fill="#FEFEFE"/>
<path d="M57.2 43.4C57.1 41.6 57 39.8 57 38C57 35.7 55.9 32.8 59.1 31.7C62.4 30.5 65.8 30.3 69 32C70.6 32.8 70.4 34.4 70.3 35.9C70.1 41.1 69.8 46.3 69.7 51.5C69.7 54 68.9 54.8 66.4 54.8C57.8 55 57.8 55.1 57.4 46.3C57.3 45.4 57.3 44.4 57.2 43.4Z" fill="#FEFDFD"/>
<path d="M112.4 19.9C105.3 20.9 105.3 20.9 105.3 27.8C105.3 31.7 105.3 35.6 105.3 39.5C105.3 40.4 105.6 41.7 104.3 41.8C102.6 41.9 102.8 40.5 102.8 39.4C102.8 34.4 102.7 29.3 102.8 24.3C102.9 21.7 102.6 19.8 99.3 20.4C95.8 21 95.4999 19.4 96.6999 16.6C97.3999 15 98 13.3 98.4 11.5C99.1 8.40001 100.2 6.70001 104.2 6.60001C108.3 6.60001 109 8.80001 109.8 11.7C110.4 14.4 111.4 17.1 112.4 19.9Z" fill="#FEF9F9"/>
<path d="M55.4 49.9C55.8 53.1 55.9 54.9 53.1 54.7C51.1 54.5 48.5 56 47.8 52.3C47 48 45.8 43.8 44.5 39.6C43.3 35.8 46 34.8 48.4 34.3C51 33.8 54.3 33.3 54.6 37.6C55 42.1 55.2 46.7 55.4 49.9Z" fill="#FEFCFC"/>
<path d="M74.9 54.7C72 55.2 71.2 53.9 71.5 51.1C72 46.7 72.2 42.3 72.4 38C72.5 36.2 72.9 34.8 74.9 34.4C77.4 33.8 79.7 34 81.8 35.8C83.3 37.1 83 38.4 82.4 40.1C81.2 43.8 80 47.6 79.4 51.4C78.9 54.4 77.7 55.3 74.9 54.7Z" fill="#FEFCFC"/>
<path d="M34.2001 46C33.9001 45.7 33.5001 45.3 33.2001 45C31.3001 41.8 32.4001 39.5 35.6001 38.5C39.0001 37.4 42.1001 37.7 43.0001 42.1C43.6001 44.9 44.5001 47.7 45.0001 50.6C45.3001 51.9 46.6001 53.7 45.2001 54.6C43.6001 55.6 41.5001 55.7 39.9001 53.9C37.5001 51.7 36.8001 48.1 34.2001 46Z" fill="#FEFBFB"/>
<path d="M87 54.7C80.9 55.3 80.8 55.3 82.1 49.2C82.6 46.7 83.5 44.3 84 41.8C84.7 38.6 86.8 37.6 89.7 38.1C92.4 38.6 95.2 39.3 94.8 43.1C93.9 44.7 92.3 45.8 91.4 47.4C90.6 48.4 90.1 49.5 89.3 50.5C88.2 51.8 87.9 53.5 86.9 54.9L87 54.7Z" fill="#FEFCFC"/>
<path d="M99.2 78.1C102.6 76.7 102.7 74 102.6 71C102.4 67.4 102.6 63.9 102.6 60.3C102.6 59.4 102.5 58.1 103.9 58.2C105.1 58.3 105.3 59.3 105.3 60.4C105.3 63.3 105.3 66.2 105.3 69.2C105.3 72.6 104.3 76.5 108.9 78.2C105.7 78.1 102.5 78.1 99.2 78.1Z" fill="#FBE4E5"/>
<path d="M34.2 46C38.2 47.1 38.8 50.7 40 53.9C39.7 54.2 39.3999 54.5 39.0999 54.9C36.6999 52.3 35.1 49.4 34.2 46Z" fill="#EC3B41"/>
<path d="M90.8 47C91.6 45.2 92.9 43.9 94.7 43.1C95.1 43.4 95.4 43.8 95.8 44.1C94.5 45.4 93.1 46.6 91.8 47.9C91.4 47.7 91 47.4 90.8 47Z" fill="#EC3C42"/>
<path d="M362.6 55.7C362.6 57.3 362.5 59 362.6 60.6C362.8 63.3 362.3 65.4 359.5 66.5C356.8 67.5 354.4 66.9 352.3 65C347.4 60.7 346.8 48.7 351.2 43.9C352.9 42.1 354.9 41.3 357.4 41.9C360.1 42.5 361.7 44.4 362.1 46.9C362.6 49.8 362.5 52.7 362.7 55.6C362.7 55.7 362.7 55.7 362.6 55.7Z" fill="#070305"/>
<path d="M188.7 56C188.7 57.6 188.6 59.3 188.7 60.9C188.9 63.4 188.3 65.4 185.8 66.4C183.4 67.4 181.1 67.1 178.9 65.5C173.4 61.3 172.5 48.8 177.5 43.8C179.3 42 181.3 41.4 183.7 42.1C186.5 42.9 188 45.1 188.4 47.8C188.7 50.5 188.5 53.3 188.5 56.1C188.6 56 188.6 56 188.7 56Z" fill="#070305"/>
<path d="M455 57C455 64.1 452.7 68 448.3 68.3C444.3 68.6 440.5 64.4 439.4 58.3C438.8 55 438.5 51.6 439.3 48.2C440.1 45 441.5 42.4 445.1 41.9C448.7 41.4 450.9 43.4 452.5 46.2C454.4 49.6 455 53.3 455 57Z" fill="#070305"/>
<path d="M212.3 50.3C210.2 48.6 206.8 51.9 206.1 48C205.6 45.3 209.6 42 212.7 42.1C216.4 42.2 218.9 44.4 218.6 47.8C218.2 52.5 213.9 47.9 212.3 50.3Z" fill="#0D090B"/>
<path d="M386.2 50C384.1 48.8 380.9 51.5 380 48.2C379.2 45.5 383.6 41.8 386.8 42C390.2 42.2 392.6 44.2 392.5 47.5C392.2 52.3 388 48.3 386.2 50Z" fill="#0E0A0C"/>
<path d="M245.1 64.5C244 65.1 243 65.7 241.9 66.4C239 67 236.8 66.1 235.7 63.1C234.7 60.2 236 58 238.2 56.3C239.8 55.1 241.5 54 243.2 52.8C244.2 53.1 246.2 52 246 54.2C245.8 57.7 247.2 61.3 245.1 64.5Z" fill="#080406"/>
<path d="M63.6 78.9C56.6 78.9 49.7 78.9 42.7 78.9C41.8 78.9 40.5 79.3 40.3 78C40.2 76.5 41.4 76.2 42.6 76.2C56.4 76.2 70.2 76.2 83.9 76.2C85.2 76.2 86.4 76.6 86.5 77.8C86.6 79.6 84.9 78.9 83.9 78.9C77.2 78.9 70.4 78.9 63.6 78.9Z" fill="#E91D24"/>
<path d="M64.5 67.4C57.1 67.4 49.7 67.4 42.3 67.4C42.3 66.9 42.3 66.3 42.3 65.8C49.7 65.9 57.0001 65.2 64.4001 66.4C64.6001 66.6 64.7 66.8 64.7 67.1C64.7 67.3 64.6 67.4 64.5 67.4Z" fill="#E91E25"/>
<path d="M64.5 67.4C64.5 67.1 64.5 66.7 64.5 66.4C71.1 64.8 77.8 66.2 84.5 66.5C77.9 68 71.2 67.7 64.5 67.4Z" fill="#E91D24"/>
<path d="M86.9 54.8C86.6 52.8 87.5 51.2 88.8 49.8C89.8 49.6 90.3 49.9 90 51C88.9 52.3 89 54.4 86.9 54.8Z" fill="#E91D24"/>
<path d="M90 51C89.6 50.6 89.2 50.2 88.8 49.8C89.3 48.7 89.7 47.6 90.8 46.9C91.1 47.2 91.4 47.5 91.8 47.8C91.5 49.1 91 50.2 90 51Z" fill="#ED4248"/>
</svg>
